<?xml version="1.0" encoding="UTF-8" standalone="no"?>
<!-- Created with Inkscape (http://www.inkscape.org/) -->

<svg
   xmlns:dc="http://purl.org/dc/elements/1.1/"
   xmlns:cc="http://creativecommons.org/ns#"
   xmlns:rdf="http://www.w3.org/1999/02/22-rdf-syntax-ns#"
   xmlns:svg="http://www.w3.org/2000/svg"
   xmlns="http://www.w3.org/2000/svg"
   xmlns:sodipodi="http://sodipodi.sourceforge.net/DTD/sodipodi-0.dtd"
   xmlns:inkscape="http://www.inkscape.org/namespaces/inkscape"
   version="1.1"
   width="650"
   height="300"
   id="svg3093"
   xml:space="preserve"
   inkscape:version="0.48.3.1 r9886"
   sodipodi:docname="edspire-logo-bare.svg"><sodipodi:namedview
     pagecolor="#ffffff"
     bordercolor="#666666"
     borderopacity="1"
     objecttolerance="10"
     gridtolerance="10"
     guidetolerance="10"
     inkscape:pageopacity="0"
     inkscape:pageshadow="2"
     inkscape:window-width="1256"
     inkscape:window-height="833"
     id="namedview59"
     showgrid="false"
     inkscape:zoom="1.2692437"
     inkscape:cx="315.75035"
     inkscape:cy="164.029"
     inkscape:window-x="49"
     inkscape:window-y="24"
     inkscape:window-maximized="0"
     inkscape:current-layer="g3278" /><metadata
     id="metadata3099"><rdf:RDF><cc:Work
         rdf:about=""><dc:format>image/svg+xml</dc:format><dc:type
           rdf:resource="http://purl.org/dc/dcmitype/StillImage" /><dc:title /></cc:Work></rdf:RDF></metadata><defs
     id="defs3097"><clipPath
       id="clipPath3107"><path
         d="m 0,-0.2 793.6,0 0,595.2 L 0,595 0,-0.2 z"
         id="path3109"
         inkscape:connector-curvature="0" /></clipPath></defs><g
     transform="matrix(1.1817071,0,0,-1.1817071,-159.31776,486.28058)"
     id="g3101"><g
       id="g3113" /><g
       id="g3115" /><g
       id="g3911"><g
         id="g3278"
         transform="translate(21.155842,21.155835)"><g
           transform="translate(0,-4.3144871)"
           id="g3117"><g
             transform="matrix(1,0,0,-1,128.9,221.2)"
             id="text3119"><path
               d="m 43.76,-82.32 c 4.853285,8.2e-5 9.33328,0.826748 13.44,2.48 4.106605,1.600078 7.653268,3.946743 10.64,7.04 2.986596,3.04007 5.306594,6.826733 6.96,11.36 1.70659,4.480057 2.559923,9.600052 2.56,15.36 -7.7e-5,2.240044 -0.240077,3.733376 -0.72,4.48 -0.480076,0.746708 -1.386742,1.12004 -2.72,1.12 l -53.92,0 c 0.106647,5.120035 0.799979,9.573364 2.08,13.36 1.279977,3.78669 3.039975,6.96002 5.28,9.52 2.23997,2.506682 4.906634,4.400013 8,5.68 3.093295,1.226677 6.559958,1.84001 10.4,1.84 3.573284,10e-6 6.639948,-0.39999 9.2,-1.2 2.613276,-0.853321 4.853274,-1.759987 6.72,-2.72 1.866603,-0.959985 3.413268,-1.839984 4.64,-2.64 1.279932,-0.853316 2.373265,-1.279982 3.28,-1.28 1.173263,1.8e-5 2.079928,0.453351 2.72,1.36 l 4,5.2 c -1.760075,2.1333426 -3.866739,4.0000074 -6.32,5.6 -2.453401,1.5466709 -5.093398,2.8266696 -7.92,3.84 -2.773393,1.01333424 -5.65339,1.76000016 -8.64,2.24 -2.986717,0.53333248 -5.946714,0.7999989 -8.88,0.8 -5.600039,-1.1e-6 -10.773367,-0.93333352 -15.52,-2.8 -4.693358,-1.9199964 -8.773354,-4.693327 -12.24,-8.32 -3.413347,-3.679986 -6.080011,-8.213315 -8,-13.6 -1.9200069,-5.386638 -2.8800059,-11.573298 -2.88,-18.56 -5.9e-6,-5.653286 0.8533266,-10.93328 2.56,-15.84 1.75999,-4.906604 4.266654,-9.1466 7.52,-12.72 3.253314,-3.626592 7.226643,-6.453256 11.92,-8.48 4.693301,-2.079919 9.973295,-3.119918 15.84,-3.12 m 0.32,10.48 c -6.880037,7.2e-5 -12.293365,2.00007 -16.24,6 -3.946691,3.946729 -6.400021,9.440056 -7.36,16.48 l 44.08,0 c -6.5e-5,-3.306614 -0.453397,-6.319944 -1.36,-9.04 -0.906729,-2.773272 -2.240061,-5.146603 -4,-7.12 -1.760057,-2.026599 -3.920055,-3.573264 -6.48,-4.64 -2.506717,-1.119929 -5.386714,-1.679928 -8.64,-1.68"
               id="path3140"
               style="font-size:160px;font-variant:normal;font-weight:normal;writing-mode:lr-tb;fill:#83caff;fill-opacity:1;fill-rule:nonzero;stroke:none;font-family:Lato;-inkscape-font-specification:Lato-Regular"
               inkscape:connector-curvature="0" /><path
               sodipodi:nodetypes="ccccscsssccccccccccccccccsscccc"
               d="m 152.4,0 c -2.02673,0 -3.30673,-0.98666568 -3.84,-2.96 l -1.28,-9.84 c -3.46673,4.2133419 -7.44006,7.6000052 -11.92,10.16 -4.42671,2.5066668 -9.52004,3.7599989 -15.28,3.76 -4.64003,-1.1e-6 -8.85336,-0.88000024 -12.64,-2.64 -3.78669,-1.81333 -7.01335,-4.4533274 -9.68,-7.92 -2.666678,-3.466654 -4.720009,-7.786649 -6.16,-12.96 -1.440006,-5.173306 -2.160005,-11.119966 -2.16,-17.84 -5e-6,-5.973287 0.799994,-11.519948 2.4,-16.64 1.599991,-5.173271 3.893322,-9.653267 6.88,-13.44 3.03998,-3.786593 6.71998,-6.74659 11.04,-8.88 4.31997,-2.186585 9.22663,-3.279918 14.72,-3.28 4.95995,8.2e-5 9.19995,0.853415 12.72,2.56 3.51994,1.653412 6.66661,4.000076 9.44,7.04 l 0,-44.96 14.24,-34.38129 L 160.88,0 152.4,0 m -27.6,-10.4 c 4.63995,10e-6 8.69328,-1.066655 12.16,-3.2 3.51994,-2.133318 6.74661,-5.146648 9.68,-9.04 l 0,-39.2 c -2.61339,-3.519935 -5.49339,-5.973266 -8.64,-7.36 -3.09338,-1.439929 -6.53338,-2.159929 -10.32,-2.16 -7.57337,7.1e-5 -13.3867,2.693402 -17.44,8.08 -4.05336,5.386725 -6.08002,13.066717 -6.08,23.04 -2e-5,5.280035 0.45331,9.813364 1.36,13.6 0.90664,3.733356 2.23998,6.826686 4,9.28 1.75997,2.400015 3.91997,4.160013 6.48,5.28 2.55997,1.120011 5.4933,1.68001 8.8,1.68"
               id="path3142"
               style="font-size:160px;font-variant:normal;font-weight:normal;writing-mode:lr-tb;fill:#83caff;fill-opacity:1;fill-rule:nonzero;stroke:none;font-family:Lato;-inkscape-font-specification:Lato-Regular"
               inkscape:connector-curvature="0" /></g></g><g
           transform="translate(0,-4.3144871)"
           id="g3123"><g
             transform="matrix(1,0,0,-1,302,221.2)"
             id="text3125"><path
               d="m 58.08,-67.68 c -0.640057,1.1734 -1.626723,1.760066 -2.96,1.76 -0.800054,6.6e-5 -1.70672,-0.293267 -2.72,-0.88 -1.013385,-0.586599 -2.266717,-1.226599 -3.76,-1.92 -1.440047,-0.746597 -3.173379,-1.413263 -5.2,-2 -2.026708,-0.639929 -4.426706,-0.959928 -7.2,-0.96 -2.400034,7.2e-5 -4.560032,0.320071 -6.48,0.96 -1.920028,0.586737 -3.57336,1.413403 -4.96,2.48 -1.333357,1.066734 -2.373356,2.320066 -3.12,3.76 -0.693354,1.38673 -1.040021,2.906728 -1.04,4.56 -2.1e-5,2.080058 0.586645,3.813389 1.76,5.2 1.226643,1.38672 2.826641,2.586719 4.8,3.6 1.973304,1.013383 4.213302,1.920049 6.72,2.72 2.50663,0.746714 5.066628,1.57338 7.68,2.48 2.666622,0.853378 5.253286,1.813377 7.76,2.88 2.506615,1.066709 4.746613,2.400041 6.72,4 1.973275,1.600037 3.546607,3.573369 4.72,5.92 1.226605,2.293364 1.839937,5.066695 1.84,8.32 -6.3e-5,3.733354 -0.666729,7.200018 -2,10.4 -1.333393,3.146678 -3.306724,5.8933418 -5.92,8.24 -2.613385,2.2933372 -5.813382,4.1066687 -9.6,5.44 C 41.333292,0.61333272 36.959963,1.2799987 32,1.28 26.34664,1.2799987 21.226645,0.37333296 16.64,-1.44 12.053321,-3.3066634 8.1599918,-5.6799943 4.96,-8.56 L 8.32,-14 c 0.4266579,-0.693319 0.9333241,-1.226651 1.52,-1.6 0.586656,-0.373317 1.359989,-0.559984 2.32,-0.56 0.959987,1.6e-5 1.973319,0.373349 3.04,1.12 1.06665,0.746681 2.346649,1.573347 3.84,2.48 1.546646,0.906678 3.386644,1.733344 5.52,2.48 2.18664,0.746676 4.906637,1.120009 8.16,1.12 2.773298,9e-6 5.199962,-0.3466574 7.28,-1.04 2.079958,-0.746656 3.81329,-1.733322 5.2,-2.96 1.38662,-1.226652 2.399952,-2.639984 3.04,-4.24 0.693284,-1.599981 1.039951,-3.306646 1.04,-5.12 -4.9e-5,-2.239975 -0.613382,-4.079974 -1.84,-5.52 -1.17338,-1.493304 -2.746711,-2.746636 -4.72,-3.76 -1.973374,-1.066634 -4.240038,-1.9733 -6.8,-2.72 -2.5067,-0.799965 -5.093364,-1.626631 -7.76,-2.48 -2.613359,-0.853296 -5.200023,-1.813295 -7.76,-2.88 -2.506685,-1.119959 -4.746682,-2.506624 -6.72,-4.16 -1.973345,-1.653288 -3.573343,-3.679952 -4.8,-6.08 -1.173341,-2.453281 -1.7600071,-5.413278 -1.76,-8.88 -7.1e-6,-3.093271 0.6399922,-6.053268 1.92,-8.88 1.27999,-2.879929 3.146654,-5.386594 5.6,-7.52 2.453316,-2.186589 5.466647,-3.919921 9.04,-5.2 3.573306,-1.279918 7.653302,-1.919918 12.24,-1.92 5.333292,8.2e-5 10.106621,0.853415 14.32,2.56 4.266612,1.653411 7.946608,3.946742 11.04,6.88 l -3.2,5.2"
               id="path3145"
               style="font-size:160px;font-variant:normal;font-weight:normal;writing-mode:lr-tb;fill:#0066cc;fill-opacity:1;fill-rule:nonzero;stroke:none;font-family:Lato;-inkscape-font-specification:Lato-Regular"
               inkscape:connector-curvature="0" /><path
               sodipodi:nodetypes="ccccccccccccccscccccccccssccccc"
               d="m 81.120002,27.44 0,-108.48 8.48,0 c 2.026645,8.1e-5 3.306644,0.986747 3.84,2.96 l 1.2,9.6 c 3.466638,-4.213261 7.413298,-7.599924 11.839998,-10.16 4.47996,-2.559919 9.62662,-3.839918 15.44,-3.84 4.63995,8.2e-5 8.85327,0.906748 12.64,2.72 3.7866,1.760078 7.01326,4.400075 9.68,7.92 2.66659,3.466735 4.71992,7.786731 6.16,12.96 1.43992,5.173387 2.15992,11.120048 2.16,17.84 -8e-5,5.973368 -0.80008,11.546696 -2.4,16.72 -1.60008,5.120019 -3.89341,9.573348 -6.88,13.36 -2.98674,3.7333406 -6.66673,6.6933376 -11.04,8.88 -4.32006,2.13333328 -9.20005,3.1999989 -14.64,3.2 -5.01337,-1.1e-6 -9.3067,-0.82666696 -12.88,-2.48 -3.52003,-1.6533303 -6.640026,-3.9999946 -9.359998,-7.04 l 0,67.648667 L 81.120002,27.44 M 117.2,-70.96 c -4.64004,7.1e-5 -8.72004,1.066737 -12.24,3.2 -3.4667,2.133399 -6.666693,5.146729 -9.599998,9.04 l 0,39.2 c 2.613305,3.520016 5.466638,6.000014 8.559998,7.44 3.14663,1.440011 6.63996,2.1600099 10.48,2.16 7.51995,9.9e-6 13.30661,-2.693321 17.36,-8.08 4.05327,-5.386643 6.07993,-13.066636 6.08,-23.04 -7e-5,-5.279954 -0.48007,-9.813282 -1.44,-13.6 -0.90673,-3.786608 -2.24006,-6.879938 -4,-9.28 -1.76006,-2.453267 -3.92006,-4.239932 -6.48,-5.36 -2.56005,-1.11993 -5.46672,-1.679929 -8.72,-1.68"
               id="path3147"
               style="font-size:160px;font-variant:normal;font-weight:normal;writing-mode:lr-tb;fill:#0066cc;fill-opacity:1;fill-rule:nonzero;stroke:none;font-family:Lato;-inkscape-font-specification:Lato-Regular"
               inkscape:connector-curvature="0" /><g
               id="g3819"><path
                 d="m 185.27999,-81.04 0,81.04 -14.24,0 0,-81.04 14.24,0"
                 id="path3825"
                 style="font-size:160px;font-variant:normal;font-weight:normal;writing-mode:lr-tb;fill:#0066cc;fill-opacity:1;fill-rule:nonzero;stroke:none;font-family:Lato;-inkscape-font-specification:Lato-Regular"
                 inkscape:connector-curvature="0" /><g
                 transform="translate(0,-19.2)"
                 id="g3827"><path
                   d="m 188.47999,-106.48 c -3e-5,1.38677 -0.29336,2.69344 -0.88,3.92 -0.53336,1.17343 -1.28002,2.2401 -2.24,3.2 -0.90669,0.906765 -1.97335,1.626764 -3.2,2.16 -1.22669,0.53343 -2.53335,0.800096 -3.92,0.8 -1.38668,9.6e-5 -2.69335,-0.26657 -3.92,-0.8 -1.17334,-0.533236 -2.24001,-1.253235 -3.2,-2.16 -0.90667,-0.9599 -1.62667,-2.02657 -2.16,-3.2 -0.53334,-1.22656 -0.80001,-2.53323 -0.8,-3.92 -1e-5,-1.38656 0.26666,-2.69322 0.8,-3.92 0.53333,-1.27989 1.25333,-2.37322 2.16,-3.28 0.95999,-0.95989 2.02666,-1.70655 3.2,-2.24 1.22665,-0.53322 2.53332,-0.79988 3.92,-0.8 1.38665,1.2e-4 2.69331,0.26678 3.92,0.8 1.22665,0.53345 2.29331,1.28011 3.2,2.24 0.95998,0.90678 1.70664,2.00011 2.24,3.28 0.58664,1.22678 0.87997,2.53344 0.88,3.92"
                   id="path3149"
                   style="font-size:160px;font-variant:normal;font-weight:normal;writing-mode:lr-tb;fill:#0066cc;fill-opacity:1;fill-rule:nonzero;stroke:none;font-family:Lato;-inkscape-font-specification:Lato-Regular"
                   inkscape:connector-curvature="0" /></g></g><path
               d="m 210.4,0 0,-81.04 8.16,0 c 1.54665,8.1e-5 2.61331,0.293414 3.2,0.88 0.58664,0.586746 0.98664,1.600079 1.2,3.04 l 0.96,12.64 c 2.77331,-5.653263 6.18664,-10.053259 10.24,-13.2 4.10663,-3.199919 8.90662,-4.799918 14.4,-4.8 2.23995,8.2e-5 4.26661,0.266749 6.08,0.8 1.81328,0.480081 3.49328,1.173414 5.04,2.08 l -1.84,10.64 c -0.37339,1.333401 -1.20006,2.000067 -2.48,2 -0.74672,6.7e-5 -1.89339,-0.239933 -3.44,-0.72 -1.54672,-0.533265 -3.70671,-0.799932 -6.48,-0.8 -4.96004,6.8e-5 -9.12004,1.440067 -12.48,4.32 -3.3067,2.880061 -6.08003,7.066724 -8.32,12.56 l 0,51.6 -14.24,0"
               id="path3151"
               style="font-size:160px;font-variant:normal;font-weight:normal;writing-mode:lr-tb;fill:#0066cc;fill-opacity:1;fill-rule:nonzero;stroke:none;font-family:Lato;-inkscape-font-specification:Lato-Regular"
               inkscape:connector-curvature="0" /><path
               d="m 306.96001,-82.32 c 4.85329,8.2e-5 9.33328,0.826748 13.44,2.48 4.10661,1.600078 7.65327,3.946743 10.64,7.04 2.9866,3.04007 5.3066,6.826733 6.96,11.36 1.70659,4.480057 2.55992,9.600052 2.56,15.36 -8e-5,2.240044 -0.24007,3.733376 -0.72,4.48 -0.48007,0.746708 -1.38674,1.12004 -2.72,1.12 l -53.92,0 c 0.10665,5.120035 0.79998,9.573364 2.08,13.36 1.27998,3.78669 3.03998,6.96002 5.28,9.52 2.23997,2.506682 4.90664,4.400013 8,5.68 3.0933,1.226677 6.55996,1.84001 10.4,1.84 3.57329,10e-6 6.63995,-0.39999 9.2,-1.2 2.61328,-0.853321 4.85328,-1.759987 6.72,-2.72 1.86661,-0.959985 3.41327,-1.839984 4.64,-2.64 1.27993,-0.853316 2.37327,-1.279982 3.28,-1.28 1.17326,1.8e-5 2.07993,0.453351 2.72,1.36 l 4,5.2 c -1.76007,2.1333426 -3.86674,4.0000074 -6.32,5.6 -2.4534,1.5466709 -5.0934,2.8266696 -7.92,3.84 -2.77339,1.01333424 -5.65339,1.76000016 -8.64,2.24 -2.98671,0.53333248 -5.94671,0.7999989 -8.88,0.8 -5.60004,-1.1e-6 -10.77336,-0.93333352 -15.52,-2.8 -4.69336,-1.9199964 -8.77335,-4.693327 -12.24,-8.32 -3.41334,-3.679986 -6.08001,-8.213315 -8,-13.6 -1.92,-5.386638 -2.88,-11.573298 -2.88,-18.56 0,-5.653286 0.85333,-10.93328 2.56,-15.84 1.75999,-4.906604 4.26666,-9.1466 7.52,-12.72 3.25332,-3.626592 7.22665,-6.453256 11.92,-8.48 4.6933,-2.079919 9.9733,-3.119918 15.84,-3.12 m 0.32,10.48 c -6.88003,7.2e-5 -12.29336,2.00007 -16.24,6 -3.94669,3.946729 -6.40002,9.440056 -7.36,16.48 l 44.08,0 c -6e-5,-3.306614 -0.4534,-6.319944 -1.36,-9.04 -0.90673,-2.773272 -2.24006,-5.146603 -4,-7.12 -1.76006,-2.026599 -3.92005,-3.573264 -6.48,-4.64 -2.50671,-1.119929 -5.38671,-1.679928 -8.64,-1.68"
               id="path3153"
               style="font-size:160px;font-variant:normal;font-weight:normal;writing-mode:lr-tb;fill:#0066cc;fill-opacity:1;fill-rule:nonzero;stroke:none;font-family:Lato;-inkscape-font-specification:Lato-Regular"
               inkscape:connector-curvature="0" /></g></g><g
           transform="matrix(1,0,0,-1,0,-4.3144871)"
           id="text3767"
           style="font-size:38.40000153px;font-style:normal;font-variant:normal;font-weight:normal;font-stretch:normal;line-height:1000%;letter-spacing:0px;word-spacing:0px;fill:#333333;fill-opacity:1;stroke:none;font-family:Lato;-inkscape-font-specification:Lato" /></g></g></g></svg>