<?xml version="1.0" encoding="UTF-8" standalone="no"?>
<!-- Created with Inkscape (http://www.inkscape.org/) -->

<svg
   xmlns:dc="http://purl.org/dc/elements/1.1/"
   xmlns:cc="http://creativecommons.org/ns#"
   xmlns:rdf="http://www.w3.org/1999/02/22-rdf-syntax-ns#"
   xmlns:svg="http://www.w3.org/2000/svg"
   xmlns="http://www.w3.org/2000/svg"
   xmlns:sodipodi="http://sodipodi.sourceforge.net/DTD/sodipodi-0.dtd"
   xmlns:inkscape="http://www.inkscape.org/namespaces/inkscape"
   version="1.1"
   width="600"
   height="250"
   id="svg3093"
   xml:space="preserve"
   inkscape:version="0.48.3.1 r9886"
   sodipodi:docname="edspire-logo-away-2.svg"><sodipodi:namedview
     pagecolor="#ffffff"
     bordercolor="#666666"
     borderopacity="1"
     objecttolerance="10"
     gridtolerance="10"
     guidetolerance="10"
     inkscape:pageopacity="0"
     inkscape:pageshadow="2"
     inkscape:window-width="1392"
     inkscape:window-height="882"
     id="namedview58"
     showgrid="false"
     inkscape:zoom="1.0707692"
     inkscape:cx="298.27992"
     inkscape:cy="193.05837"
     inkscape:window-x="49"
     inkscape:window-y="24"
     inkscape:window-maximized="0"
     inkscape:current-layer="svg3093" /><metadata
     id="metadata3099"><rdf:RDF><cc:Work
         rdf:about=""><dc:format>image/svg+xml</dc:format><dc:type
           rdf:resource="http://purl.org/dc/dcmitype/StillImage" /><dc:title /></cc:Work></rdf:RDF></metadata><defs
     id="defs3097"><clipPath
       id="clipPath3107"><path
         d="m 0,-0.2 793.6,0 0,595.2 L 0,595 0,-0.2 z"
         id="path3109"
         inkscape:connector-curvature="0" /></clipPath></defs><g
     id="g3113"
     transform="matrix(1.1817071,0,0,-1.1817071,-184.31776,461.28058)" /><g
     id="g3115"
     transform="matrix(1.1817071,0,0,-1.1817071,-184.31776,461.28058)" /><g
     id="g3132"><g
       id="g3117"
       transform="matrix(1.1817071,0,0,-1.1817071,-159.31775,441.37904)"><g
         id="text3119"
         transform="matrix(1,0,0,-1,128.9,221.2)"><path
           inkscape:connector-curvature="0"
           style="font-size:160px;font-variant:normal;font-weight:normal;writing-mode:lr-tb;fill:#83caff;fill-opacity:1;fill-rule:nonzero;stroke:none;font-family:Lato;-inkscape-font-specification:Lato-Regular"
           id="path3140"
           d="m 43.76,-82.32 c 4.853285,8.2e-5 9.33328,0.826748 13.44,2.48 4.106605,1.600078 7.653268,3.946743 10.64,7.04 2.986596,3.04007 5.306594,6.826733 6.96,11.36 1.70659,4.480057 2.559923,9.600052 2.56,15.36 -7.7e-5,2.240044 -0.240077,3.733376 -0.72,4.48 -0.480076,0.746708 -1.386742,1.12004 -2.72,1.12 l -53.92,0 c 0.106647,5.120035 0.799979,9.573364 2.08,13.36 1.279977,3.78669 3.039975,6.96002 5.28,9.52 2.23997,2.506682 4.906634,4.400013 8,5.68 3.093295,1.226677 6.559958,1.84001 10.4,1.84 3.573284,10e-6 6.639948,-0.39999 9.2,-1.2 2.613276,-0.853321 4.853274,-1.759987 6.72,-2.72 1.866603,-0.959985 3.413268,-1.839984 4.64,-2.64 1.279932,-0.853316 2.373265,-1.279982 3.28,-1.28 1.173263,1.8e-5 2.079928,0.453351 2.72,1.36 l 4,5.2 c -1.760075,2.1333426 -3.866739,4.0000074 -6.32,5.6 -2.453401,1.5466709 -5.093398,2.8266696 -7.92,3.84 -2.773393,1.01333424 -5.65339,1.76000016 -8.64,2.24 -2.986717,0.53333248 -5.946714,0.7999989 -8.88,0.8 -5.600039,-1.1e-6 -10.773367,-0.93333352 -15.52,-2.8 -4.693358,-1.9199964 -8.773354,-4.693327 -12.24,-8.32 -3.413347,-3.679986 -6.080011,-8.213315 -8,-13.6 -1.9200069,-5.386638 -2.8800059,-11.573298 -2.88,-18.56 -5.9e-6,-5.653286 0.8533266,-10.93328 2.56,-15.84 1.75999,-4.906604 4.266654,-9.1466 7.52,-12.72 3.253314,-3.626592 7.226643,-6.453256 11.92,-8.48 4.693301,-2.079919 9.973295,-3.119918 15.84,-3.12 m 0.32,10.48 c -6.880037,7.2e-5 -12.293365,2.00007 -16.24,6 -3.946691,3.946729 -6.400021,9.440056 -7.36,16.48 l 44.08,0 c -6.5e-5,-3.306614 -0.453397,-6.319944 -1.36,-9.04 -0.906729,-2.773272 -2.240061,-5.146603 -4,-7.12 -1.760057,-2.026599 -3.920055,-3.573264 -6.48,-4.64 -2.506717,-1.119929 -5.386714,-1.679928 -8.64,-1.68" /><path
           inkscape:connector-curvature="0"
           style="font-size:160px;font-variant:normal;font-weight:normal;writing-mode:lr-tb;fill:#83caff;fill-opacity:1;fill-rule:nonzero;stroke:none;font-family:Lato;-inkscape-font-specification:Lato-Regular"
           id="path3142"
           d="m 152.4,0 c -2.02673,0 -3.30673,-0.98666568 -3.84,-2.96 l -1.28,-9.84 c -3.46673,4.2133419 -7.44006,7.6000052 -11.92,10.16 -4.42671,2.5066668 -9.52004,3.7599989 -15.28,3.76 -4.64003,-1.1e-6 -8.85336,-0.88000024 -12.64,-2.64 -3.78669,-1.81333 -7.01335,-4.4533274 -9.68,-7.92 -2.666678,-3.466654 -4.720009,-7.786649 -6.16,-12.96 -1.440006,-5.173306 -2.160005,-11.119966 -2.16,-17.84 -5e-6,-5.973287 0.799994,-11.519948 2.4,-16.64 1.599991,-5.173271 3.893322,-9.653267 6.88,-13.44 3.03998,-3.786593 6.71998,-6.74659 11.04,-8.88 4.31997,-2.186585 9.22663,-3.279918 14.72,-3.28 4.95995,8.2e-5 9.19995,0.853415 12.72,2.56 3.51994,1.653412 6.66661,4.000076 9.44,7.04 l 0,-44.96 14.24,-34.38129 L 160.88,0 152.4,0 m -27.6,-10.4 c 4.63995,10e-6 8.69328,-1.066655 12.16,-3.2 3.51994,-2.133318 6.74661,-5.146648 9.68,-9.04 l 0,-39.2 c -2.61339,-3.519935 -5.49339,-5.973266 -8.64,-7.36 -3.09338,-1.439929 -6.53338,-2.159929 -10.32,-2.16 -7.57337,7.1e-5 -13.3867,2.693402 -17.44,8.08 -4.05336,5.386725 -6.08002,13.066717 -6.08,23.04 -2e-5,5.280035 0.45331,9.813364 1.36,13.6 0.90664,3.733356 2.23998,6.826686 4,9.28 1.75997,2.400015 3.91997,4.160013 6.48,5.28 2.55997,1.120011 5.4933,1.68001 8.8,1.68" /></g></g><g
       id="g3123"
       transform="matrix(1.1817071,0,0,-1.1817071,-159.31775,441.37904)"><g
         id="text3125"
         transform="matrix(1,0,0,-1,302,221.2)"><path
           inkscape:connector-curvature="0"
           style="font-size:160px;font-variant:normal;font-weight:normal;writing-mode:lr-tb;fill:#0066cc;fill-opacity:1;fill-rule:nonzero;stroke:none;font-family:Lato;-inkscape-font-specification:Lato-Regular"
           id="path3145"
           d="m 58.08,-67.68 c -0.640057,1.1734 -1.626723,1.760066 -2.96,1.76 -0.800054,6.6e-5 -1.70672,-0.293267 -2.72,-0.88 -1.013385,-0.586599 -2.266717,-1.226599 -3.76,-1.92 -1.440047,-0.746597 -3.173379,-1.413263 -5.2,-2 -2.026708,-0.639929 -4.426706,-0.959928 -7.2,-0.96 -2.400034,7.2e-5 -4.560032,0.320071 -6.48,0.96 -1.920028,0.586737 -3.57336,1.413403 -4.96,2.48 -1.333357,1.066734 -2.373356,2.320066 -3.12,3.76 -0.693354,1.38673 -1.040021,2.906728 -1.04,4.56 -2.1e-5,2.080058 0.586645,3.813389 1.76,5.2 1.226643,1.38672 2.826641,2.586719 4.8,3.6 1.973304,1.013383 4.213302,1.920049 6.72,2.72 2.50663,0.746714 5.066628,1.57338 7.68,2.48 2.666622,0.853378 5.253286,1.813377 7.76,2.88 2.506615,1.066709 4.746613,2.400041 6.72,4 1.973275,1.600037 3.546607,3.573369 4.72,5.92 1.226605,2.293364 1.839937,5.066695 1.84,8.32 -6.3e-5,3.733354 -0.666729,7.200018 -2,10.4 -1.333393,3.146678 -3.306724,5.8933418 -5.92,8.24 -2.613385,2.2933372 -5.813382,4.1066687 -9.6,5.44 C 41.333292,0.61333272 36.959963,1.2799987 32,1.28 26.34664,1.2799987 21.226645,0.37333296 16.64,-1.44 12.053321,-3.3066634 8.1599918,-5.6799943 4.96,-8.56 L 8.32,-14 c 0.4266579,-0.693319 0.9333241,-1.226651 1.52,-1.6 0.586656,-0.373317 1.359989,-0.559984 2.32,-0.56 0.959987,1.6e-5 1.973319,0.373349 3.04,1.12 1.06665,0.746681 2.346649,1.573347 3.84,2.48 1.546646,0.906678 3.386644,1.733344 5.52,2.48 2.18664,0.746676 4.906637,1.120009 8.16,1.12 2.773298,9e-6 5.199962,-0.3466574 7.28,-1.04 2.079958,-0.746656 3.81329,-1.733322 5.2,-2.96 1.38662,-1.226652 2.399952,-2.639984 3.04,-4.24 0.693284,-1.599981 1.039951,-3.306646 1.04,-5.12 -4.9e-5,-2.239975 -0.613382,-4.079974 -1.84,-5.52 -1.17338,-1.493304 -2.746711,-2.746636 -4.72,-3.76 -1.973374,-1.066634 -4.240038,-1.9733 -6.8,-2.72 -2.5067,-0.799965 -5.093364,-1.626631 -7.76,-2.48 -2.613359,-0.853296 -5.200023,-1.813295 -7.76,-2.88 -2.506685,-1.119959 -4.746682,-2.506624 -6.72,-4.16 -1.973345,-1.653288 -3.573343,-3.679952 -4.8,-6.08 -1.173341,-2.453281 -1.7600071,-5.413278 -1.76,-8.88 -7.1e-6,-3.093271 0.6399922,-6.053268 1.92,-8.88 1.27999,-2.879929 3.146654,-5.386594 5.6,-7.52 2.453316,-2.186589 5.466647,-3.919921 9.04,-5.2 3.573306,-1.279918 7.653302,-1.919918 12.24,-1.92 5.333292,8.2e-5 10.106621,0.853415 14.32,2.56 4.266612,1.653411 7.946608,3.946742 11.04,6.88 l -3.2,5.2" /><path
           inkscape:connector-curvature="0"
           style="font-size:160px;font-variant:normal;font-weight:normal;writing-mode:lr-tb;fill:#0066cc;fill-opacity:1;fill-rule:nonzero;stroke:none;font-family:Lato;-inkscape-font-specification:Lato-Regular"
           id="path3147"
           d="m 81.120002,27.44 0,-108.48 8.48,0 c 2.026645,8.1e-5 3.306644,0.986747 3.84,2.96 l 1.2,9.6 c 3.466638,-4.213261 7.413298,-7.599924 11.839998,-10.16 4.47996,-2.559919 9.62662,-3.839918 15.44,-3.84 4.63995,8.2e-5 8.85327,0.906748 12.64,2.72 3.7866,1.760078 7.01326,4.400075 9.68,7.92 2.66659,3.466735 4.71992,7.786731 6.16,12.96 1.43992,5.173387 2.15992,11.120048 2.16,17.84 -8e-5,5.973368 -0.80008,11.546696 -2.4,16.72 -1.60008,5.120019 -3.89341,9.573348 -6.88,13.36 -2.98674,3.7333406 -6.66673,6.6933376 -11.04,8.88 -4.32006,2.13333328 -9.20005,3.1999989 -14.64,3.2 -5.01337,-1.1e-6 -9.3067,-0.82666696 -12.88,-2.48 -3.52003,-1.6533303 -6.640026,-3.9999946 -9.359998,-7.04 l 0,67.648667 L 81.120002,27.44 M 117.2,-70.96 c -4.64004,7.1e-5 -8.72004,1.066737 -12.24,3.2 -3.4667,2.133399 -6.666693,5.146729 -9.599998,9.04 l 0,39.2 c 2.613305,3.520016 5.466638,6.000014 8.559998,7.44 3.14663,1.440011 6.63996,2.1600099 10.48,2.16 7.51995,9.9e-6 13.30661,-2.693321 17.36,-8.08 4.05327,-5.386643 6.07993,-13.066636 6.08,-23.04 -7e-5,-5.279954 -0.48007,-9.813282 -1.44,-13.6 -0.90673,-3.786608 -2.24006,-6.879938 -4,-9.28 -1.76006,-2.453267 -3.92006,-4.239932 -6.48,-5.36 -2.56005,-1.11993 -5.46672,-1.679929 -8.72,-1.68" /><g
           id="g3819"><path
             inkscape:connector-curvature="0"
             style="font-size:160px;font-variant:normal;font-weight:normal;writing-mode:lr-tb;fill:#0066cc;fill-opacity:1;fill-rule:nonzero;stroke:none;font-family:Lato;-inkscape-font-specification:Lato-Regular"
             id="path3825"
             d="m 185.27999,-81.04 0,81.04 -14.24,0 0,-81.04 14.24,0" /><g
             id="g3827"
             transform="translate(0,-19.2)"><path
               inkscape:connector-curvature="0"
               style="font-size:160px;font-variant:normal;font-weight:normal;writing-mode:lr-tb;fill:#0066cc;fill-opacity:1;fill-rule:nonzero;stroke:none;font-family:Lato;-inkscape-font-specification:Lato-Regular"
               id="path3149"
               d="m 188.47999,-106.48 c -3e-5,1.38677 -0.29336,2.69344 -0.88,3.92 -0.53336,1.17343 -1.28002,2.2401 -2.24,3.2 -0.90669,0.906765 -1.97335,1.626764 -3.2,2.16 -1.22669,0.53343 -2.53335,0.800096 -3.92,0.8 -1.38668,9.6e-5 -2.69335,-0.26657 -3.92,-0.8 -1.17334,-0.533236 -2.24001,-1.253235 -3.2,-2.16 -0.90667,-0.9599 -1.62667,-2.02657 -2.16,-3.2 -0.53334,-1.22656 -0.80001,-2.53323 -0.8,-3.92 -1e-5,-1.38656 0.26666,-2.69322 0.8,-3.92 0.53333,-1.27989 1.25333,-2.37322 2.16,-3.28 0.95999,-0.95989 2.02666,-1.70655 3.2,-2.24 1.22665,-0.53322 2.53332,-0.79988 3.92,-0.8 1.38665,1.2e-4 2.69331,0.26678 3.92,0.8 1.22665,0.53345 2.29331,1.28011 3.2,2.24 0.95998,0.90678 1.70664,2.00011 2.24,3.28 0.58664,1.22678 0.87997,2.53344 0.88,3.92" /></g></g><path
           inkscape:connector-curvature="0"
           style="font-size:160px;font-variant:normal;font-weight:normal;writing-mode:lr-tb;fill:#0066cc;fill-opacity:1;fill-rule:nonzero;stroke:none;font-family:Lato;-inkscape-font-specification:Lato-Regular"
           id="path3151"
           d="m 210.4,0 0,-81.04 8.16,0 c 1.54665,8.1e-5 2.61331,0.293414 3.2,0.88 0.58664,0.586746 0.98664,1.600079 1.2,3.04 l 0.96,12.64 c 2.77331,-5.653263 6.18664,-10.053259 10.24,-13.2 4.10663,-3.199919 8.90662,-4.799918 14.4,-4.8 2.23995,8.2e-5 4.26661,0.266749 6.08,0.8 1.81328,0.480081 3.49328,1.173414 5.04,2.08 l -1.84,10.64 c -0.37339,1.333401 -1.20006,2.000067 -2.48,2 -0.74672,6.7e-5 -1.89339,-0.239933 -3.44,-0.72 -1.54672,-0.533265 -3.70671,-0.799932 -6.48,-0.8 -4.96004,6.8e-5 -9.12004,1.440067 -12.48,4.32 -3.3067,2.880061 -6.08003,7.066724 -8.32,12.56 l 0,51.6 -14.24,0" /><path
           inkscape:connector-curvature="0"
           style="font-size:160px;font-variant:normal;font-weight:normal;writing-mode:lr-tb;fill:#0066cc;fill-opacity:1;fill-rule:nonzero;stroke:none;font-family:Lato;-inkscape-font-specification:Lato-Regular"
           id="path3153"
           d="m 306.96001,-82.32 c 4.85329,8.2e-5 9.33328,0.826748 13.44,2.48 4.10661,1.600078 7.65327,3.946743 10.64,7.04 2.9866,3.04007 5.3066,6.826733 6.96,11.36 1.70659,4.480057 2.55992,9.600052 2.56,15.36 -8e-5,2.240044 -0.24007,3.733376 -0.72,4.48 -0.48007,0.746708 -1.38674,1.12004 -2.72,1.12 l -53.92,0 c 0.10665,5.120035 0.79998,9.573364 2.08,13.36 1.27998,3.78669 3.03998,6.96002 5.28,9.52 2.23997,2.506682 4.90664,4.400013 8,5.68 3.0933,1.226677 6.55996,1.84001 10.4,1.84 3.57329,10e-6 6.63995,-0.39999 9.2,-1.2 2.61328,-0.853321 4.85328,-1.759987 6.72,-2.72 1.86661,-0.959985 3.41327,-1.839984 4.64,-2.64 1.27993,-0.853316 2.37327,-1.279982 3.28,-1.28 1.17326,1.8e-5 2.07993,0.453351 2.72,1.36 l 4,5.2 c -1.76007,2.1333426 -3.86674,4.0000074 -6.32,5.6 -2.4534,1.5466709 -5.0934,2.8266696 -7.92,3.84 -2.77339,1.01333424 -5.65339,1.76000016 -8.64,2.24 -2.98671,0.53333248 -5.94671,0.7999989 -8.88,0.8 -5.60004,-1.1e-6 -10.77336,-0.93333352 -15.52,-2.8 -4.69336,-1.9199964 -8.77335,-4.693327 -12.24,-8.32 -3.41334,-3.679986 -6.08001,-8.213315 -8,-13.6 -1.92,-5.386638 -2.88,-11.573298 -2.88,-18.56 0,-5.653286 0.85333,-10.93328 2.56,-15.84 1.75999,-4.906604 4.26666,-9.1466 7.52,-12.72 3.25332,-3.626592 7.22665,-6.453256 11.92,-8.48 4.6933,-2.079919 9.9733,-3.119918 15.84,-3.12 m 0.32,10.48 c -6.88003,7.2e-5 -12.29336,2.00007 -16.24,6 -3.94669,3.946729 -6.40002,9.440056 -7.36,16.48 l 44.08,0 c -6e-5,-3.306614 -0.4534,-6.319944 -1.36,-9.04 -0.90673,-2.773272 -2.24006,-5.146603 -4,-7.12 -1.76006,-2.026599 -3.92005,-3.573264 -6.48,-4.64 -2.50671,-1.119929 -5.38671,-1.679928 -8.64,-1.68" /></g></g><g
       style="font-size:38.40000153px;font-style:normal;font-variant:normal;font-weight:normal;font-stretch:normal;line-height:1000%;letter-spacing:0px;word-spacing:0px;fill:#ffffff;fill-opacity:1;stroke:none;font-family:Lato;-inkscape-font-specification:Lato"
       id="text3767-76"
       transform="matrix(1.1817071,0,0,1.1817071,-201.31775,433.37904)"><path
         inkscape:connector-curvature="0"
         style="font-size:28.79999924px;letter-spacing:8.64800072px;fill:#ffffff"
         id="path3880"
         d="m 242.15323,-190.6901 c 1.06559,2e-5 2.02559,0.17762 2.88,0.5328 0.86399,0.35522 1.59358,0.85922 2.1888,1.512 0.60478,0.65281 1.06558,1.44481 1.3824,2.376 0.32638,0.92161 0.48958,1.95361 0.4896,3.096 -2e-5,1.15201 -0.16322,2.18881 -0.4896,3.1104 -0.31682,0.92161 -0.77762,1.7088 -1.3824,2.3616 -0.59522,0.6528 -1.32481,1.1568 -2.1888,1.512 -0.85441,0.3456 -1.81441,0.5184 -2.88,0.5184 -1.06561,0 -2.03041,-0.1728 -2.8944,-0.5184 -0.85441,-0.3552 -1.58401,-0.8592 -2.1888,-1.512 -0.6048,-0.6528 -1.0704,-1.43999 -1.3968,-2.3616 -0.3264,-0.92159 -0.4896,-1.95839 -0.4896,-3.1104 0,-1.14239 0.1632,-2.17439 0.4896,-3.096 0.3264,-0.93119 0.792,-1.72319 1.3968,-2.376 0.60479,-0.65278 1.33439,-1.15678 2.1888,-1.512 0.86399,-0.35518 1.82879,-0.53278 2.8944,-0.5328 m 0,13.0176 c 1.43999,0 2.51519,-0.48 3.2256,-1.44 0.71039,-0.96959 1.06559,-2.31839 1.0656,-4.0464 -1e-5,-1.73759 -0.35521,-3.09119 -1.0656,-4.0608 -0.71041,-0.96958 -1.78561,-1.45438 -3.2256,-1.4544 -0.72961,2e-5 -1.36321,0.12482 -1.9008,0.3744 -0.53761,0.24961 -0.98881,0.60961 -1.3536,1.08 -0.35521,0.47041 -0.62401,1.05121 -0.8064,1.7424 -0.17281,0.68161 -0.25921,1.45441 -0.2592,2.3184 -10e-6,0.86401 0.0864,1.63681 0.2592,2.3184 0.18239,0.68161 0.45119,1.25761 0.8064,1.728 0.36479,0.46081 0.81599,0.816 1.3536,1.0656 0.53759,0.2496 1.17119,0.3744 1.9008,0.3744" /><path
         inkscape:connector-curvature="0"
         style="font-size:28.79999924px;letter-spacing:8.64800072px;fill:#ffffff"
         id="path3882"
         d="m 260.92848,-175.8725 0,-14.5872 1.5264,0 c 0.3648,2e-5 0.5952,0.17762 0.6912,0.5328 l 0.2016,1.584 c 0.6336,-0.70078 1.33919,-1.26718 2.1168,-1.6992 0.78719,-0.43198 1.69439,-0.64798 2.7216,-0.648 0.79679,2e-5 1.49759,0.13442 2.1024,0.4032 0.61439,0.25922 1.12319,0.63362 1.5264,1.1232 0.41279,0.48002 0.72479,1.06081 0.936,1.7424 0.21119,0.68161 0.31679,1.43521 0.3168,2.2608 l 0,9.288 -2.5632,0 0,-9.288 c -10e-6,-1.10399 -0.25441,-1.95839 -0.7632,-2.5632 -0.49921,-0.61438 -1.26721,-0.92158 -2.304,-0.9216 -0.75841,2e-5 -1.46881,0.18242 -2.1312,0.5472 -0.65281,0.36481 -1.25761,0.85921 -1.8144,1.4832 l 0,10.7424 -2.5632,0" /><path
         inkscape:connector-curvature="0"
         style="font-size:28.79999924px;letter-spacing:8.64800072px;fill:#ffffff"
         id="path3884"
         d="m 288.45893,-197.0837 0,21.2112 -2.5632,0 0,-21.2112 2.5632,0" /><path
         inkscape:connector-curvature="0"
         style="font-size:28.79999924px;letter-spacing:8.64800072px;fill:#ffffff"
         id="path3886"
         d="m 304.47568,-190.4597 0,14.5872 -2.5632,0 0,-14.5872 2.5632,0 m 0.576,-4.5792 c -10e-6,0.24962 -0.0528,0.48482 -0.1584,0.7056 -0.096,0.21122 -0.23041,0.40322 -0.4032,0.576 -0.16321,0.16322 -0.35521,0.29282 -0.576,0.3888 -0.2208,0.096 -0.456,0.14402 -0.7056,0.144 -0.2496,2e-5 -0.4848,-0.048 -0.7056,-0.144 -0.2112,-0.096 -0.4032,-0.22558 -0.576,-0.3888 -0.1632,-0.17278 -0.2928,-0.36478 -0.3888,-0.576 -0.096,-0.22078 -0.144,-0.45598 -0.144,-0.7056 0,-0.24958 0.048,-0.48478 0.144,-0.7056 0.096,-0.23038 0.2256,-0.42718 0.3888,-0.5904 0.1728,-0.17278 0.3648,-0.30718 0.576,-0.4032 0.2208,-0.096 0.456,-0.14398 0.7056,-0.144 0.2496,2e-5 0.4848,0.048 0.7056,0.144 0.22079,0.096 0.41279,0.23042 0.576,0.4032 0.17279,0.16322 0.30719,0.36002 0.4032,0.5904 0.10559,0.22082 0.15839,0.45602 0.1584,0.7056" /><path
         inkscape:connector-curvature="0"
         style="font-size:28.79999924px;letter-spacing:8.64800072px;fill:#ffffff"
         id="path3888"
         d="m 317.64123,-175.8725 0,-14.5872 1.5264,0 c 0.3648,2e-5 0.5952,0.17762 0.6912,0.5328 l 0.2016,1.584 c 0.6336,-0.70078 1.3392,-1.26718 2.1168,-1.6992 0.7872,-0.43198 1.6944,-0.64798 2.7216,-0.648 0.79679,2e-5 1.49759,0.13442 2.1024,0.4032 0.61439,0.25922 1.12319,0.63362 1.5264,1.1232 0.41279,0.48002 0.72479,1.06081 0.936,1.7424 0.21119,0.68161 0.31679,1.43521 0.3168,2.2608 l 0,9.288 -2.5632,0 0,-9.288 c -10e-6,-1.10399 -0.25441,-1.95839 -0.7632,-2.5632 -0.49921,-0.61438 -1.26721,-0.92158 -2.304,-0.9216 -0.7584,2e-5 -1.4688,0.18242 -2.1312,0.5472 -0.6528,0.36481 -1.2576,0.85921 -1.8144,1.4832 l 0,10.7424 -2.5632,0" /><path
         inkscape:connector-curvature="0"
         style="font-size:28.79999924px;letter-spacing:8.64800072px;fill:#ffffff"
         id="path3890"
         d="m 348.09488,-190.6901 c 0.87359,2e-5 1.67999,0.14882 2.4192,0.4464 0.73919,0.28802 1.37759,0.71042 1.9152,1.2672 0.53759,0.54722 0.95519,1.22881 1.2528,2.0448 0.30718,0.80641 0.46078,1.72801 0.4608,2.7648 -2e-5,0.40321 -0.0432,0.67201 -0.1296,0.8064 -0.0864,0.13441 -0.24962,0.20161 -0.4896,0.2016 l -9.7056,0 c 0.0192,0.92161 0.14399,1.72321 0.3744,2.4048 0.23039,0.68161 0.54719,1.25281 0.9504,1.7136 0.40319,0.45121 0.88319,0.792 1.44,1.0224 0.55679,0.2208 1.18079,0.3312 1.872,0.3312 0.64319,0 1.19519,-0.072 1.656,-0.216 0.47039,-0.1536 0.87359,-0.3168 1.2096,-0.4896 0.33599,-0.17279 0.61439,-0.33119 0.8352,-0.4752 0.23039,-0.15359 0.42719,-0.23039 0.5904,-0.2304 0.21119,10e-6 0.37439,0.0816 0.4896,0.2448 l 0.72,0.936 c -0.31682,0.384 -0.69601,0.72 -1.1376,1.008 -0.44161,0.2784 -0.91681,0.5088 -1.4256,0.6912 -0.49921,0.1824 -1.01761,0.3168 -1.5552,0.4032 -0.53761,0.096 -1.07041,0.144 -1.5984,0.144 -1.00801,0 -1.93921,-0.168 -2.7936,-0.504 -0.84481,-0.3456 -1.57921,-0.8448 -2.2032,-1.4976 -0.6144,-0.6624 -1.0944,-1.47839 -1.44,-2.448 -0.3456,-0.96959 -0.5184,-2.08319 -0.5184,-3.3408 0,-1.01759 0.1536,-1.96799 0.4608,-2.8512 0.3168,-0.88319 0.768,-1.64639 1.3536,-2.2896 0.5856,-0.65278 1.30079,-1.16158 2.1456,-1.5264 0.84479,-0.37438 1.79519,-0.56158 2.8512,-0.5616 m 0.0576,1.8864 c -1.23841,2e-5 -2.21281,0.36002 -2.9232,1.08 -0.71041,0.71041 -1.15201,1.69921 -1.3248,2.9664 l 7.9344,0 c -1e-5,-0.59519 -0.0816,-1.13759 -0.2448,-1.6272 -0.16321,-0.49919 -0.40321,-0.92639 -0.72,-1.2816 -0.31681,-0.36479 -0.70561,-0.64318 -1.1664,-0.8352 -0.45121,-0.20158 -0.96961,-0.30238 -1.5552,-0.3024" /></g><g
       style="font-size:38.40000153px;font-style:normal;font-variant:normal;font-weight:normal;font-stretch:normal;line-height:1000%;letter-spacing:0px;word-spacing:0px;fill:#ffffff;fill-opacity:1;stroke:none;font-family:Lato;-inkscape-font-specification:Lato"
       id="text3767-7-4"
       transform="matrix(1.1817071,0,0,1.1817071,-143.31775,433.37904)"><path
         inkscape:connector-curvature="0"
         style="font-size:28.79999924px;letter-spacing:8.64800072px;fill:#ffffff"
         id="path3857"
         d="m 431.51125,-197.0837 0,21.2112 -2.5632,0 0,-21.2112 2.5632,0" /><path
         inkscape:connector-curvature="0"
         style="font-size:28.79999924px;letter-spacing:8.64800072px;fill:#ffffff"
         id="path3859"
         d="m 450.4512,-190.6901 c 0.87359,2e-5 1.67999,0.14882 2.4192,0.4464 0.73919,0.28802 1.37759,0.71042 1.9152,1.2672 0.53758,0.54722 0.95518,1.22881 1.2528,2.0448 0.30718,0.80641 0.46078,1.72801 0.4608,2.7648 -2e-5,0.40321 -0.0432,0.67201 -0.1296,0.8064 -0.0864,0.13441 -0.24962,0.20161 -0.4896,0.2016 l -9.7056,0 c 0.0192,0.92161 0.14399,1.72321 0.3744,2.4048 0.23039,0.68161 0.54719,1.25281 0.9504,1.7136 0.40319,0.45121 0.88319,0.792 1.44,1.0224 0.55679,0.2208 1.18079,0.3312 1.872,0.3312 0.64319,0 1.19519,-0.072 1.656,-0.216 0.47039,-0.1536 0.87359,-0.3168 1.2096,-0.4896 0.33599,-0.17279 0.61439,-0.33119 0.8352,-0.4752 0.23039,-0.15359 0.42719,-0.23039 0.5904,-0.2304 0.21118,10e-6 0.37438,0.0816 0.4896,0.2448 l 0.72,0.936 c -0.31682,0.384 -0.69602,0.72 -1.1376,1.008 -0.44161,0.2784 -0.91681,0.5088 -1.4256,0.6912 -0.49921,0.1824 -1.01761,0.3168 -1.5552,0.4032 -0.53761,0.096 -1.07041,0.144 -1.5984,0.144 -1.00801,0 -1.93921,-0.168 -2.7936,-0.504 -0.84481,-0.3456 -1.57921,-0.8448 -2.2032,-1.4976 -0.6144,-0.6624 -1.0944,-1.47839 -1.44,-2.448 -0.3456,-0.96959 -0.5184,-2.08319 -0.5184,-3.3408 0,-1.01759 0.1536,-1.96799 0.4608,-2.8512 0.3168,-0.88319 0.768,-1.64639 1.3536,-2.2896 0.58559,-0.65278 1.30079,-1.16158 2.1456,-1.5264 0.84479,-0.37438 1.79519,-0.56158 2.8512,-0.5616 m 0.0576,1.8864 c -1.23841,2e-5 -2.21281,0.36002 -2.9232,1.08 -0.71041,0.71041 -1.15201,1.69921 -1.3248,2.9664 l 7.9344,0 c -10e-6,-0.59519 -0.0816,-1.13759 -0.2448,-1.6272 -0.16321,-0.49919 -0.40321,-0.92639 -0.72,-1.2816 -0.31681,-0.36479 -0.70561,-0.64318 -1.1664,-0.8352 -0.45121,-0.20158 -0.96961,-0.30238 -1.5552,-0.3024" /><path
         inkscape:connector-curvature="0"
         style="font-size:28.79999924px;letter-spacing:8.64800072px;fill:#ffffff"
         id="path3861"
         d="m 479.1134,-175.8725 -1.1376,0 c -0.24961,0 -0.45121,-0.0384 -0.6048,-0.1152 -0.15361,-0.0768 -0.25441,-0.24 -0.3024,-0.4896 l -0.288,-1.3536 c -0.38401,0.3456 -0.75841,0.6576 -1.1232,0.936 -0.36481,0.2688 -0.74881,0.4992 -1.152,0.6912 -0.40321,0.1824 -0.83521,0.3216 -1.296,0.4176 -0.45121,0.096 -0.95521,0.144 -1.512,0.144 -0.56641,0 -1.09921,-0.0768 -1.5984,-0.2304 -0.48961,-0.1632 -0.91681,-0.4032 -1.2816,-0.72 -0.3648,-0.3168 -0.6576,-0.7152 -0.8784,-1.1952 -0.2112,-0.4896 -0.3168,-1.06559 -0.3168,-1.728 0,-0.57599 0.1584,-1.12799 0.4752,-1.656 0.3168,-0.53759 0.82559,-1.01279 1.5264,-1.4256 0.71039,-0.41279 1.63679,-0.74879 2.7792,-1.008 1.14239,-0.26879 2.53919,-0.42239 4.1904,-0.4608 l 0,-1.1376 c -10e-6,-1.13279 -0.24481,-1.98719 -0.7344,-2.5632 -0.48001,-0.58558 -1.19521,-0.87838 -2.1456,-0.8784 -0.62401,2e-5 -1.15201,0.0816 -1.584,0.2448 -0.42241,0.15362 -0.79201,0.33121 -1.1088,0.5328 -0.30721,0.19201 -0.57601,0.36961 -0.8064,0.5328 -0.22081,0.15361 -0.44161,0.23041 -0.6624,0.2304 -0.17281,1e-5 -0.32641,-0.0432 -0.4608,-0.1296 -0.12481,-0.096 -0.22561,-0.21119 -0.3024,-0.3456 l -0.4608,-0.8208 c 0.80639,-0.77758 1.67519,-1.35838 2.6064,-1.7424 0.93119,-0.38398 1.96319,-0.57598 3.096,-0.576 0.81599,2e-5 1.54079,0.13442 2.1744,0.4032 0.63359,0.26882 1.16639,0.64322 1.5984,1.1232 0.43199,0.48002 0.75839,1.06082 0.9792,1.7424 0.22078,0.68161 0.33118,1.43041 0.3312,2.2464 l 0,9.3312 m -6.6528,-1.5696 c 0.45119,0 0.86399,-0.0432 1.2384,-0.1296 0.37439,-0.096 0.72479,-0.2256 1.0512,-0.3888 0.33599,-0.1728 0.65279,-0.3792 0.9504,-0.6192 0.30719,-0.23999 0.60479,-0.51359 0.8928,-0.8208 l 0,-3.0384 c -1.18081,0.0384 -2.18401,0.13441 -3.0096,0.288 -0.82561,0.14401 -1.49761,0.33601 -2.016,0.576 -0.51841,0.24001 -0.89761,0.52321 -1.1376,0.8496 -0.23041,0.32641 -0.34561,0.69121 -0.3456,1.0944 -1e-5,0.38401 0.0624,0.71521 0.1872,0.9936 0.12479,0.2784 0.29279,0.5088 0.504,0.6912 0.21119,0.1728 0.46079,0.3024 0.7488,0.3888 0.28799,0.0768 0.59999,0.1152 0.936,0.1152" /><path
         inkscape:connector-curvature="0"
         style="font-size:28.79999924px;letter-spacing:8.64800072px;fill:#ffffff"
         id="path3863"
         d="m 491.6728,-175.8725 0,-14.5872 1.4688,0 c 0.2784,2e-5 0.4704,0.0528 0.576,0.1584 0.1056,0.10562 0.1776,0.28802 0.216,0.5472 l 0.1728,2.2752 c 0.4992,-1.01758 1.11359,-1.80958 1.8432,-2.376 0.73919,-0.57598 1.60319,-0.86398 2.592,-0.864 0.40319,2e-5 0.76799,0.048 1.0944,0.144 0.32639,0.0864 0.62879,0.21122 0.9072,0.3744 l -0.3312,1.9152 c -0.0672,0.24001 -0.21601,0.36001 -0.4464,0.36 -0.13441,1e-5 -0.34081,-0.0432 -0.6192,-0.1296 -0.27841,-0.096 -0.66721,-0.14398 -1.1664,-0.144 -0.89281,2e-5 -1.64161,0.25921 -2.2464,0.7776 -0.59521,0.51841 -1.0944,1.27201 -1.4976,2.2608 l 0,9.288 -2.5632,0" /><path
         inkscape:connector-curvature="0"
         style="font-size:28.79999924px;letter-spacing:8.64800072px;fill:#ffffff"
         id="path3865"
         d="m 511.9083,-175.8725 0,-14.5872 1.5264,0 c 0.3648,2e-5 0.5952,0.17762 0.6912,0.5328 l 0.2016,1.584 c 0.6336,-0.70078 1.33919,-1.26718 2.1168,-1.6992 0.78719,-0.43198 1.69439,-0.64798 2.7216,-0.648 0.79679,2e-5 1.49759,0.13442 2.1024,0.4032 0.61439,0.25922 1.12319,0.63362 1.5264,1.1232 0.41279,0.48002 0.72479,1.06081 0.936,1.7424 0.21119,0.68161 0.31679,1.43521 0.3168,2.2608 l 0,9.288 -2.5632,0 0,-9.288 c -10e-6,-1.10399 -0.25441,-1.95839 -0.7632,-2.5632 -0.49921,-0.61438 -1.26721,-0.92158 -2.304,-0.9216 -0.75841,2e-5 -1.46881,0.18242 -2.1312,0.5472 -0.65281,0.36481 -1.2576,0.85921 -1.8144,1.4832 l 0,10.7424 -2.5632,0" /><path
         inkscape:connector-curvature="0"
         style="font-size:28.79999924px;letter-spacing:8.64800072px;fill:#ffffff"
         id="path3867"
         d="m 539.43875,-190.4597 0,14.5872 -2.5632,0 0,-14.5872 2.5632,0 m 0.576,-4.5792 c 0,0.24962 -0.0528,0.48482 -0.1584,0.7056 -0.096,0.21122 -0.2304,0.40322 -0.4032,0.576 -0.1632,0.16322 -0.3552,0.29282 -0.576,0.3888 -0.2208,0.096 -0.456,0.14402 -0.7056,0.144 -0.2496,2e-5 -0.4848,-0.048 -0.7056,-0.144 -0.2112,-0.096 -0.4032,-0.22558 -0.576,-0.3888 -0.1632,-0.17278 -0.2928,-0.36478 -0.3888,-0.576 -0.096,-0.22078 -0.144,-0.45598 -0.144,-0.7056 0,-0.24958 0.048,-0.48478 0.144,-0.7056 0.096,-0.23038 0.2256,-0.42718 0.3888,-0.5904 0.1728,-0.17278 0.3648,-0.30718 0.576,-0.4032 0.2208,-0.096 0.456,-0.14398 0.7056,-0.144 0.2496,2e-5 0.4848,0.048 0.7056,0.144 0.2208,0.096 0.4128,0.23042 0.576,0.4032 0.1728,0.16322 0.3072,0.36002 0.4032,0.5904 0.1056,0.22082 0.1584,0.45602 0.1584,0.7056" /><path
         inkscape:connector-curvature="0"
         style="font-size:28.79999924px;letter-spacing:8.64800072px;fill:#ffffff"
         id="path3869"
         d="m 552.6043,-175.8725 0,-14.5872 1.5264,0 c 0.3648,2e-5 0.5952,0.17762 0.6912,0.5328 l 0.2016,1.584 c 0.63359,-0.70078 1.33919,-1.26718 2.1168,-1.6992 0.78719,-0.43198 1.69439,-0.64798 2.7216,-0.648 0.79679,2e-5 1.49759,0.13442 2.1024,0.4032 0.61439,0.25922 1.12319,0.63362 1.5264,1.1232 0.41279,0.48002 0.72479,1.06081 0.936,1.7424 0.21119,0.68161 0.31679,1.43521 0.3168,2.2608 l 0,9.288 -2.5632,0 0,-9.288 c -10e-6,-1.10399 -0.25441,-1.95839 -0.7632,-2.5632 -0.49921,-0.61438 -1.26721,-0.92158 -2.304,-0.9216 -0.75841,2e-5 -1.46881,0.18242 -2.1312,0.5472 -0.65281,0.36481 -1.25761,0.85921 -1.8144,1.4832 l 0,10.7424 -2.5632,0" /><path
         inkscape:connector-curvature="0"
         style="font-size:28.79999924px;letter-spacing:8.64800072px;fill:#ffffff"
         id="path3871"
         d="m 582.19395,-190.7045 c 0.63359,2e-5 1.22399,0.072 1.7712,0.216 0.55679,0.13442 1.06079,0.33602 1.512,0.6048 l 3.96,0 0,0.9504 c -10e-6,0.31682 -0.20161,0.51842 -0.6048,0.6048 l -1.656,0.2304 c 0.32639,0.62401 0.48959,1.32001 0.4896,2.088 -10e-6,0.71041 -0.13921,1.35841 -0.4176,1.944 -0.26881,0.57601 -0.64801,1.07041 -1.1376,1.4832 -0.48001,0.41281 -1.05601,0.72961 -1.728,0.9504 -0.66241,0.22081 -1.39201,0.33121 -2.1888,0.3312 -0.6816,1e-5 -1.3248,-0.0816 -1.9296,-0.2448 -0.3072,0.19201 -0.5424,0.39841 -0.7056,0.6192 -0.1536,0.22081 -0.2304,0.43681 -0.2304,0.648 0,0.34561 0.1392,0.60961 0.4176,0.792 0.2784,0.17281 0.648,0.29761 1.1088,0.3744 0.4608,0.0768 0.984,0.12481 1.5696,0.144 0.58559,0.0192 1.18079,0.0528 1.7856,0.1008 0.61439,0.0384 1.21439,0.11041 1.8,0.216 0.58559,0.10561 1.10879,0.27841 1.5696,0.5184 0.46079,0.24 0.83039,0.5712 1.1088,0.9936 0.27839,0.4224 0.41759,0.9696 0.4176,1.6416 -10e-6,0.624 -0.15841,1.2288 -0.4752,1.8144 -0.30721,0.5856 -0.75361,1.104 -1.3392,1.5552 -0.58561,0.4608 -1.30081,0.8256 -2.1456,1.0944 -0.84481,0.2784 -1.80001,0.4176 -2.8656,0.4176 -1.0656,0 -2.0016,-0.1056 -2.808,-0.3168 -0.7968,-0.2112 -1.4592,-0.4944 -1.9872,-0.8496 -0.528,-0.3552 -0.9264,-0.768 -1.1952,-1.2384 -0.2592,-0.4608 -0.3888,-0.9456 -0.3888,-1.4544 0,-0.72 0.2256,-1.3296 0.6768,-1.8288 0.4608,-0.5088 1.0896,-0.912 1.8864,-1.2096 -0.4128,-0.192 -0.744,-0.4464 -0.9936,-0.7632 -0.24,-0.32639 -0.36,-0.75839 -0.36,-1.296 0,-0.21119 0.0384,-0.42719 0.1152,-0.648 0.0768,-0.23039 0.192,-0.45599 0.3456,-0.6768 0.1632,-0.22079 0.36,-0.43199 0.5904,-0.6336 0.2304,-0.20159 0.4992,-0.37919 0.8064,-0.5328 -0.72,-0.40319 -1.2864,-0.93599 -1.6992,-1.5984 -0.4032,-0.67199 -0.6048,-1.45439 -0.6048,-2.3472 0,-0.71039 0.1344,-1.35359 0.4032,-1.9296 0.2784,-0.58558 0.6624,-1.07998 1.152,-1.4832 0.4896,-0.41278 1.0704,-0.72958 1.7424,-0.9504 0.6816,-0.22078 1.4256,-0.33118 2.232,-0.3312 m 4.5504,15.624 c -1e-5,-0.3648 -0.10081,-0.6576 -0.3024,-0.8784 -0.20161,-0.2208 -0.47521,-0.3888 -0.8208,-0.504 -0.34561,-0.1248 -0.74401,-0.216 -1.1952,-0.2736 -0.45121,-0.0576 -0.92641,-0.096 -1.4256,-0.1152 -0.49921,-0.0288 -1.008,-0.0576 -1.5264,-0.0864 -0.5184,-0.0288 -1.0128,-0.0816 -1.4832,-0.1584 -0.5472,0.2592 -0.9936,0.576 -1.3392,0.9504 -0.336,0.3744 -0.504,0.8208 -0.504,1.3392 0,0.3264 0.0816,0.6288 0.2448,0.9072 0.1728,0.288 0.432,0.5328 0.7776,0.7344 0.3456,0.2112 0.7776,0.3744 1.296,0.4896 0.528,0.1248 1.1472,0.1872 1.8576,0.1872 0.69119,0 1.31039,-0.0624 1.8576,-0.1872 0.54719,-0.1248 1.00799,-0.3024 1.3824,-0.5328 0.38399,-0.2304 0.67679,-0.504 0.8784,-0.8208 0.20159,-0.3168 0.30239,-0.6672 0.3024,-1.0512 m -4.5504,-7.92 c 0.51839,10e-6 0.97439,-0.072 1.368,-0.216 0.40319,-0.14399 0.73919,-0.34559 1.008,-0.6048 0.26879,-0.25919 0.47039,-0.56639 0.6048,-0.9216 0.13439,-0.36479 0.20159,-0.76319 0.2016,-1.1952 -10e-6,-0.89279 -0.27361,-1.60319 -0.8208,-2.1312 -0.53761,-0.52798 -1.32481,-0.79198 -2.3616,-0.792 -1.0272,2e-5 -1.8144,0.26402 -2.3616,0.792 -0.5376,0.52801 -0.8064,1.23841 -0.8064,2.1312 0,0.43201 0.0672,0.83041 0.2016,1.1952 0.144,0.35521 0.3504,0.66241 0.6192,0.9216 0.2688,0.25921 0.6,0.46081 0.9936,0.6048 0.3936,0.14401 0.8448,0.21601 1.3536,0.216" /></g></g></svg>